<svg width="20" height="20" viewBox="0 0 20 20" fill="none" xmlns="http://www.w3.org/2000/svg">
<path d="M16.875 6.45833V2.98611H13.5268V4.14352H7.94643V2.40741C7.94613 2.10054 7.82845 1.80632 7.61921 1.58934C7.40997 1.37235 7.12627 1.25031 6.83036 1.25H2.36607C2.07016 1.25031 1.78646 1.37235 1.57722 1.58934C1.36798 1.80632 1.2503 2.10054 1.25 2.40741V7.03704C1.2503 7.34391 1.36798 7.63812 1.57722 7.85511C1.78646 8.0721 2.07016 8.19414 2.36607 8.19444H6.83036C7.12627 8.19414 7.40997 8.0721 7.61921 7.85511C7.82845 7.63812 7.94613 7.34391 7.94643 7.03704V5.30093C8.39029 5.30139 8.81585 5.48444 9.12971 5.80993C9.44357 6.13541 9.62009 6.57673 9.62054 7.03704V12.2454H6.27232V11.088H2.92411V14.5602H6.27232V13.4028H9.62054V14.5602C9.62083 14.8671 9.73851 15.1613 9.94775 15.3783C10.157 15.5952 10.4407 15.7173 10.7366 15.7176H13.5268V16.875H16.875V13.4028H13.5268V14.5602H10.7366V10.5093H13.5268V11.6667H16.875V8.19444H13.5268V9.35185H10.7366V7.03704C10.7346 6.40897 10.5336 5.79899 10.1646 5.30093H13.5268V6.45833H16.875ZM2.36607 7.03704V2.40741H6.83036V7.03704H2.36607ZM5.15625 13.4028H4.04018V12.2454H5.15625V13.4028ZM14.6429 14.5602H15.7589V15.7176H14.6429V14.5602ZM14.6429 9.35185H15.7589V10.5093H14.6429V9.35185ZM14.6429 4.14352H15.7589V5.30093H14.6429V4.14352Z" fill="#F2F2F2"/>
</svg>
