<svg width="65" height="65" viewBox="0 0 65 65" fill="none" xmlns="http://www.w3.org/2000/svg">
<path d="M34.2736 51.4012H18.7076C14.8768 51.4012 11.5544 50.1298 8.80767 47.4086L8.80582 47.4068C6.08233 44.7342 4.71289 41.4643 4.71289 37.6178C4.71289 34.2994 5.70547 31.3495 7.69379 28.7494C9.67466 26.159 12.3372 24.5086 15.5224 23.795L15.8394 23.724L15.9253 23.4107C17.0046 19.4794 19.1311 16.3042 22.3381 13.8669C25.5476 11.4277 29.1854 10.1979 33.2429 10.1979C38.2548 10.1979 42.4773 11.9393 45.9688 15.4308C49.4604 18.9224 51.2018 26.6319 51.2018 31.6438V32.1266L51.6815 32.1808C54.5862 32.5092 56.9735 33.7655 58.8936 35.9635L58.8978 35.9684C59.8101 36.988 60.4918 38.0925 60.9546 39.2842C58.3516 37.6308 55.321 37.1258 51.7412 37.133C50.1443 37.1362 48.0864 37.4639 47.6419 37.5845C47.4903 37.6257 47.2379 37.7065 46.9972 37.786V31.6438C46.9972 27.8507 45.617 21.1107 42.9844 18.4232L42.9765 18.4153C40.2889 15.7826 37.036 14.4025 33.2429 14.4025C29.4498 14.4025 26.1968 15.7826 23.5092 18.4153L23.5013 18.4232C20.9946 20.9821 19.6234 24.0538 19.498 27.6163H18.7076C16.0022 27.6163 13.6969 28.571 11.7978 30.4966C9.87213 32.3957 8.91747 34.701 8.91747 37.4065C8.91747 40.1151 9.87403 42.4161 11.7924 44.39L11.7979 44.3958L11.8036 44.4013C13.7007 46.2425 16.0024 47.1966 18.7076 47.1966H34.7504C34.5002 48.0695 34.1397 49.5676 34.2736 51.4012Z" fill="#408CFF"/>
<path d="M38.3411 31.0772H37.8006H27.77V35.2818H37.8006H38.3411V35.8223V39.803L44.9646 33.1796L38.3411 26.556V30.5368V31.0772Z" fill="#408CFF"/>
<path d="M22.0943 39.4768H22.6347H32.6653V35.2722H22.6347H22.0943V34.7317V30.751L15.4707 37.3745L22.0943 43.998V40.0173V39.4768Z" fill="#408CFF"/>
</svg>
